<?xml version="1.0" encoding="utf-8"?>
<!-- Generator: Adobe Illustrator 28.2.0, SVG Export Plug-In . SVG Version: 6.00 Build 0)  -->
<svg version="1.1" id="Layer_2_00000108999373210446278680000014694283161892596882_"
	 xmlns="http://www.w3.org/2000/svg" xmlns:xlink="http://www.w3.org/1999/xlink" x="0px" y="0px" viewBox="0 0 473.1 139.1"
	 style="enable-background:new 0 0 473.1 139.1;" xml:space="preserve">
<style type="text/css">
	.st0{enable-background:new    ;}
</style>
<g id="Layer_1-2">
	<g class="st0">
		<path d="M31.3,9c4,0,18.2,0.6,18.2,16.2S36.2,42.7,31.8,42.7c-3.5,0-12.6,0-16.1,0v8.6h-14V9H31.3z M36.5,25.7
			c0-4.1-3.8-4.2-5.8-4.2s-15,0-15,0v8.8c0,0,13.1,0,15.2,0C33,30.3,36.5,29.8,36.5,25.7z"/>
	</g>
	<g class="st0">
		<path d="M107.7,51.3H91.4l-3.2-7.1H67.3l-3.2,7.1H47.9l19-42.2h21.8L107.7,51.3z M83.2,32l-5.5-11l-5.5,11H83.2z"/>
	</g>
	<g class="st0">
		<path d="M170.7,51.3h-16.3l-3.2-7.1h-20.9l-3.2,7.1h-16.2l19-42.2h21.8L170.7,51.3z M146.2,32l-5.5-11l-5.5,11H146.2z"/>
	</g>
	<g class="st0">
		<path d="M224.9,24.4c0,0-12.6,0-15,0c0-2.2-0.9-3.5-11.9-3.5c-10.7,0-11.6,0.5-11.6,2.1c0.1,1.1,0.9,1.2,11.5,2
			c23.5,1.9,28.5,2.2,28.5,13.1c0,10.8-4.1,13.1-28.3,13.1c-22.3,0-25.8-2.2-25.8-14.5c0,0,12.7,0,14.5,0c0,2.5,1.1,3.1,11.9,3.1
			c10.2,0,11.3,0.1,11.3-1.8c0-1.4-1.2-1.1-12.3-2c-17.2-1.4-25.9-2.3-25.9-13.1c0-12.5,7.3-13.8,25.9-13.8
			C219.8,9.1,224.9,12.2,224.9,24.4z"/>
		<path d="M283.4,9v42.3h-14V36.6h-25.2v14.7h-14V9h14v14.7h25.2V9H283.4z"/>
	</g>
	<g class="st0">
		<path d="M349.7,51.3h-16.3l-3.2-7.1h-20.9l-3.2,7.1h-16.2l19-42.2h21.8L349.7,51.3z M325.2,32l-5.5-11l-5.5,11H325.2z"/>
	</g>
	<g class="st0">
		<path d="M412.7,51.3h-16.3l-3.2-7.1h-20.9l-3.2,7.1h-16.2l19-42.2h21.8L412.7,51.3z M388.2,32l-5.5-11l-5.5,11H388.2z"/>
	</g>
	<g class="st0">
		<path d="M466.9,24.4c0,0-12.6,0-15,0c0-2.2-0.9-3.5-11.9-3.5c-10.7,0-11.6,0.5-11.6,2.1c0.1,1.1,0.9,1.2,11.5,2
			c23.5,1.9,28.5,2.2,28.5,13.1c0,10.8-4.1,13.1-28.3,13.1c-22.3,0-25.8-2.2-25.8-14.5c0,0,12.7,0,14.5,0c0,2.5,1.1,3.1,11.9,3.1
			c10.2,0,11.3,0.1,11.3-1.8c0-1.4-1.2-1.1-12.3-2c-17.2-1.4-25.9-2.3-25.9-13.1c0-12.5,7.3-13.8,25.9-13.8
			C461.8,9.1,466.9,12.2,466.9,24.4z"/>
	</g>
	<g class="st0">
		<path d="M100.6,81.3v14H79.6v28.3h-14V95.3H44.7v-14H100.6z"/>
	</g>
	<g class="st0">
		<path d="M163,102.3c0,16.5-9.4,21.6-29,21.6c-20.2,0-28.5-7.2-28.5-22.4c0-14.1,9.1-20.8,28.1-20.8C152,80.7,163,85.4,163,102.3z
			 M147.6,102.3c0-7-5.6-10.5-13.6-10.5c-8.8,0-13,3.9-13,10.5c0,6.1,4.1,10.5,13.2,10.5C142.4,112.7,147.6,109.5,147.6,102.3z"/>
	</g>
	<g class="st0">
		<path d="M199.8,81.3c4,0,18.2,0.5,18.2,15.6c0,7.8-3.7,12-7.8,14.3l8.6,12.5l-16.2-0.1l-7.2-9.9c-4,0-10.3,0-12.7,0v10h-14V81.3
			H199.8z M203.7,97.3c0-3.5-3.6-3.7-5.5-3.7s-15.5,0-15.5,0v7.6c0,0,13.7,0,15.7,0S203.7,100.9,203.7,97.3z"/>
	</g>
	<g class="st0">
		<path d="M259.9,123.7l-20.7-25.5v25.5h-14V81.3h19.5l20.4,25.1V81.3h14v42.3H259.9z"/>
		<path d="M341.6,102.3c0,16.5-9.4,21.6-29,21.6c-20.2,0-28.5-7.2-28.5-22.4c0-14.1,9.1-20.8,28.1-20.8
			C330.6,80.7,341.6,85.4,341.6,102.3z M326.2,102.3c0-7-5.6-10.5-13.6-10.5c-8.8,0-13,3.9-13,10.5c0,6.1,4.1,10.5,13.2,10.5
			C321,112.7,326.2,109.5,326.2,102.3z"/>
	</g>
	<g class="st0">
		<path d="M405.4,102.3c0,16.5-9.4,21.6-29,21.6c-20.2,0-28.5-7.2-28.5-22.4c0-14.1,9.1-20.8,28.1-20.8
			C394.4,80.7,405.4,85.4,405.4,102.3z M389.9,102.3c0-7-5.6-10.5-13.6-10.5c-8.8,0-13,3.9-13,10.5c0,6.1,4.1,10.5,13.2,10.5
			C384.8,112.7,389.9,109.5,389.9,102.3z"/>
	</g>
	<g class="st0">
		<path d="M410.9,81.3h14v42.3h-14V81.3z"/>
	</g>
</g>
</svg>
