<?xml version="1.0" encoding="UTF-8"?>
<svg id="Layer_2" data-name="Layer 2" xmlns="http://www.w3.org/2000/svg" viewBox="0 0 360.72 184.07">
  <defs>
    <style>
      .cls-1 {
        stroke-width: 0px;
      }
    </style>
  </defs>
  <g id="Layer_1-2" data-name="Layer 1">
    <g>
      <path class="cls-1" d="m75.23,6.21c1.26.86,5.26.97,12,.43-.02.29-.03.44-.04.73-2,.16-3,.25-4.99.42-.02.29-.03.44-.04.74,5.96-.51,9.68.67,11.16,3.49-.03.59-.05.88-.08,1.47-1.43.11-2.14.16-3.57.28-.02.29-.02.44-.04.73,1.98.14,2.97.21,4.95.35-.02.29-.03.44-.04.73-1.71.13-2.57.19-4.28.33-.02.29-.03.44-.04.73,1.43-.11,2.26,1.1,2.06,1.3-2.03,2.07-16.04,4.49-22.69,11.48-.02.29-.03.44-.04.74,9.19,1.63,16.48,6.64,21.85,14.92-.02.29-.03.44-.04.73-1.74,6.44-6.59,12.66-14.56,18.77-1.74.45-2.62.68-4.36,1.13-.02.29-.03.44-.04.74.57-.05.86-.08,1.43-.13-.06,1.32-4.42,3.17-13.08,5.68.03-.59.05-.88.08-1.47,1.42-.15,2.14-.22,3.56-.37.03-.3.05-.44.08-.74-3.05.31-5.8-1.11-8.25-4.25-2.12-.89-3.18-2.9-3.18-6.06,0-.29.01-.59.04-.91.89-.68,1.33-1.03,2.22-1.71.82.5,1.23.74,2.05,1.24.57-.06.85-.09,1.42-.15,13.4-3.57,20.33-8.52,20.75-15.18-5.62-2.43-9.34-3.53-11.15-3.35-.02.29-.03.44-.04.74-2.8-.9-4.2-1.34-7-2.22.27.26.4.4.67.66-.02.59-.03.88-.04,1.47-5.92-3.86-8.81-6.94-8.67-9.31,2.23-4.34,3.34-6.51,5.57-10.84,1.49-1.33,2.24-1.99,3.73-3.31-.03.59-.05.88-.08,1.47,5.1-4.62,7.64-6.92,12.74-11.48Zm-9.98,61.66c-.02.29-.03.44-.04.74,1.14-.11,1.71-.17,2.85-.28,1.44-.43,2.16-.65,3.61-1.08v-.73c-.29.03-.43.04-.71.07-2.28.51-3.42.77-5.7,1.29Zm.25-40.98c-.02.29-.03.44-.04.74,5.03-3.72,7.54-5.57,12.58-9.24,2.32-.79,3.47-1.18,5.79-1.96.03-.59.05-.88.08-1.47-.57.05-.86.07-1.43.12-7.52,3.51-13.18,7.48-16.98,11.81Zm3.94,29.6c.29-.03.43-.04.71-.07.6-.64.91-.96,1.51-1.61-.29.03-.43.04-.71.07-.6.64-.91.96-1.51,1.61Zm3.9,5.48v.73c.29-.03.43-.04.71-.07,1.19-.99,1.79-1.48,2.98-2.47-1.48.72-2.21,1.08-3.69,1.8Zm8.93-6.65c-1.23,1.57-1.84,2.35-3.06,3.92.29-.03.43-.04.71-.06,1.22-1.57,1.84-2.35,3.06-3.92-.29.02-.43.04-.71.06Z"/>
      <path class="cls-1" d="m119.35,5.08c.29-.02.43-.02.71-.04,6.92-.36,12.16,2.35,15.72,8.06v.73c-.57.02-.86.03-1.43.06.29.28.43.42.71.7v.73c-2.86-.23-4.29-.66-4.29-1.29-11.63.4-20.58,8.57-25,18.9-.57,2.08-.86,3.13-1.43,5.21.86,5.5,1.29,8.25,2.14,13.76.86-.06,1.29-.08,2.14-.14,5.94-.37,12.6-5.13,20-14.24.29-.01.43-.02.71-.03v.73c-5.07,7.71-10.79,12.39-17.15,14.05v.73c.29-.02.43-.03.71-.04,4.99-.29,11.18-5.01,18.58-14.1.86,1.13,1.29,1.7,2.14,2.84v2.19c0,1.58-3.57,5.36-10.72,11.46-.29.31-.43.46-.71.77-.29.01-.43.02-.71.04v1.46c8.1-4.46,12.15-7.53,12.15-9.33.57-.02.86-.03,1.43-.06,0,.29,0,.44,0,.73-6,7.55-12.91,11.52-20.72,11.97v.73c1.43-.08,2.14-.12,3.57-.2,1.14-.35,1.71-.53,2.86-.88.29-.01.43-.02.71-.04v.73c-3.43.74-5.14,1.12-8.57,1.89-3.61.21-7.42-2.21-11.43-7.27v.73c1.43,2.24,2.14,3.36,3.57,5.61v.69c-.86.06-1.29.08-2.14.14-4.42-2.8-7.04-6.49-7.85-11.1-.29-3.78-.43-5.67-.71-9.45,0-12.22,2.38-20.2,7.14-23.91v.73c-1.71,3.04-2.57,4.57-4.28,7.62v.73c.29-.02.43-.03.71-.05,2.47-9.05,10.57-15.49,17.85-20.89-.86.34-1.29.51-2.14.85-.29.02-.43.02-.71.04v-.73c2.57-.74,3.86-1.1,6.43-1.82Zm-22.85,44.59c0,.88,0,1.32,0,2.19.29,1.15.43,1.72.71,2.87.29-.02.43-.03.71-.05v-.73c-.29-1.73-.43-2.6-.71-4.34-.29.02-.43.03-.71.05Zm8.57-35.7v.73c-1.43,1.56-2.14,2.34-3.57,3.9v-.73c1.43-1.56,2.14-2.34,3.57-3.9Zm6.43-5.52c.29-.02.43-.03.71-.04v.73c-2,1-3,1.5-5,2.5,0-.97,1.43-2.04,4.29-3.19Z"/>
      <path class="cls-1" d="m168.76,2.32c5.23-.39,10.85,1.64,15.73,5.07-.29.29-.43.44-.72.73v.73c1.14,1.76,1.72,2.64,2.86,4.4-.57,0-.86,0-1.43,0-.29-.29-.43-.44-.72-.73-.29,0-.43,0-.72,0,.86,6.44,1.29,9.66,2.15,16.1.29,0,.43,0,.72,0,0-2.44.48-3.65,1.43-3.65v2.93c0,2.75-2.38,9.07-7.15,18.99.29,0,.43,0,.72,0-3.37,4.73-8.37,9.12-15.02,13.25-1.43.31-2.15.47-3.58.78-.29,0-.43,0-.72.01-11.33.18-18.48-4.2-21.45-13.36-1.14-1.72-1.72-2.57-2.86-4.29.29-.3.43-.45.71-.76-.29-2.04-.43-3.06-.71-5.09v-1.46c0-4.04,3.81-11.27,11.44-21.57v.73c-3.5,4.91-6.36,10.37-8.58,16.35v.73c.29,0,.43-.01.71-.02,3.11-10.77,11.47-19.93,19.3-27.55-2,1.2-3,1.81-5.01,3.02-.29,0-.43,0-.72.02,0-2.24,5.05-4.7,13.59-5.34Zm-28.6,33.55v5.85c.29,0,.43-.01.71-.02v-5.85c-.29,0-.43.01-.71.02Zm9.29-10.53c-.86,1.78-1.29,2.67-2.14,4.45.29,0,.43-.01.71-.02.86-1.78,1.29-2.67,2.15-4.45-.29,0-.43.01-.72.02Zm15.73-10.55c-.29-.29-.43-.43-.72-.72v.73c.29.29.43.43.72.72-2,1.78-3,2.67-5.01,4.46-3.95.07-7.77,6.98-11.44,20.73,0,3.9,2.15,7.25,6.44,10.08.29,0,.43,0,.72-.02,5.21-.11,11.17-5.81,17.88-17.06,2.38-5.35,3.58-9.25,3.58-11.72s0-3.51,0-5.85c0-1.35-2.38-2.32-7.15-2.88-.29,0-.43,0-.72,0-.29.3-.43.44-.72.74-.29,0-.43,0-.72,0v-.73c-1.14.6-1.72.9-2.86,1.5Zm-14.3,39.04v.73c1.43.84,2.14,1.26,3.57,2.11v-.73c-1.43-.85-2.14-1.27-3.57-2.11Zm22.88-16.45c-1.14,1.47-1.72,2.2-2.86,3.68.29,0,.43,0,.72,0,1.14-1.47,1.72-2.21,2.86-3.67-.29,0-.43,0-.72,0Zm3.58-8.06c-1.14,2.93-1.72,4.39-2.86,7.32.86,0,1.29,0,2.15,0,.86-2.05,1.29-3.08,2.15-5.12-.29-.88-.43-1.32-.72-2.19-.29,0-.43,0-.72,0Zm5.01,2.92c-.29.88-.43,1.32-.72,2.19v1.46c.29,0,.43,0,.72,0,.29-1.17.43-1.75.72-2.92v-.73c-.29,0-.43,0-.72,0Zm3.58-15.35c.57,0,.86,0,1.43,0v3.66c-.57,0-.86,0-1.43,0v-3.66Z"/>
      <path class="cls-1" d="m201.41,2.75c.57.89.86,1.33,1.43,2.22-.29,1.46-.43,2.19-.71,3.64.29.3.43.45.71.75.29,0,.43,0,.72.01.29-1.46.43-2.19.71-3.64.57.01.86.02,1.43.03.29.88.43,1.33.71,2.21-2.97,10.64-6.1,22.29-5.72,32.79.18,5.11,1.43,8.07,2.86,8.1,6.58-7.47,9.87-11.19,16.44-18.57.29-1.45.43-2.18.71-3.63V6.2c.57-.57.86-.85,1.43-1.41.95.03,1.43,1.03,1.43,2.98.29.01.43.02.71.03,0-1.95,1.19-2.88,3.57-2.78.57,1.19.86,1.79,1.43,2.99-.29,1.45-.43,2.18-.71,3.63.95.04,1.43-1.16,1.43-3.6.57.02.86.04,1.43.06.29.31.43.46.71.76.29.01.43.02.71.03-1.19,17.5-2.38,35-3.57,52.5-.29,1.16-.43,1.74-.71,2.89-1.91-.08-2.86.86-2.86,2.81-1.14-.05-1.72-.07-2.86-.11.29-2.91.43-4.37.71-7.29-.57-.02-.86-.03-1.43-.05v4.39c-.86.85-1.29,1.27-2.15,2.12v-.73c.29-2.92.43-4.37.71-7.29-1.43-.05-2.14-1.05-2.14-3-.29,0-.43-.01-.71-.02-4.86,2.18-7.29,3.29-12.15,5.52-2.29-.64-3.43-.95-5.72-1.57v.73c-4.94-.08-9.87-8.9-10.01-22.07-.1-9.31.25-23.72,5.72-32.85v-.73c.29,0,.43,0,.72,0v2.93c-.57,0-.86-.01-1.43-.02v1.46c.29.3.43.44.72.74v.73c-.29,0-.43,0-.72,0,.29.88.43,1.32.72,2.2-.86,1.45-1.29,2.18-2.15,3.63.29,0,.43,0,.72,0,.29-.29.43-.43.72-.72-.86,5.25-1.29,7.88-2.15,13.14v2.93c.29,0,.43,0,.72,0,.65-8.54.05-23.07,7.87-28.41Zm-8.58,29.13c-.29.29-.43.43-.72.72v5.85c.29,0,.43,0,.72,0,.29-2.63.43-3.94.72-6.57-.29,0-.43,0-.72,0Zm1.43,17.57v1.46c.29.88.43,1.32.72,2.2.29,0,.43,0,.72,0v-1.46c-.29-.88-.43-1.32-.72-2.2-.29,0-.43,0-.72,0Zm5.01,3.73v.73c0,1.69,2.15,3.18,6.44,4.51.57.01.86.02,1.43.03v-.73c-2.75-.09-5.37-1.61-7.87-4.54Zm15.73-14.99c-2,2.28-3,3.42-5,5.71.29,0,.43.01.71.02,2-2.29,3-3.43,5-5.71-.29,0-.43-.01-.71-.02Z"/>
      <path class="cls-1" d="m276.83,5.19c.86.36,1.28.55,2.14.91v1.46c-.86-.07-1.28-.11-2.14-.18.57.93.86,1.39,1.43,2.31-1.03,2.35-4.84,3.24-11.41,2.74-2,.14-3,.22-5,.37-.29.86-.43,1.29-.71,2.14.29.02.43.03.71.05-4.4,14.96-6.13,30.87-8.57,46.23.86,3.86,1.29,5.79,2.14,9.65-.29-.02-.43-.03-.71-.05-1.06-.07-2.02-2.57-2.86-7.49.29-2.91.43-4.36.71-7.27v-.73c-.29-.02-.43-.03-.71-.04v1.46c-1.43-.09-2.14.36-2.14,1.33v.73c.57,4.71.86,7.07,1.43,11.79v.73c-.57-.04-.86-.05-1.43-.09-1.14-.95-1.71-1.42-2.86-2.36-.29.28-.43.41-.71.69-.29-.02-.43-.02-.71-.04-1.9-4.32-2.86-8.03-2.86-11.13.29.31.43.46.71.77.29.02.43.02.71.04-.57-2.08-.86-3.12-1.43-5.2.86-.25,1.29-.37,2.14-.61v-3.66c-.57-.03-.86-.05-1.43-.08v-.73c1.43.08,2.14-.37,2.14-1.34v-.73c-.57-.03-.86-.05-1.43-.08,0-3.9.71-5.81,2.14-5.73,0-3.8,0-5.7,0-9.51.76-.64,1.71-5.71,2.86-15.19-2,.17-3,.26-5,.44-4-.51-6-.76-10-1.24v-.73c1.43-.23,2.14-.34,3.57-.56v.73c.29-.28.43-.42.71-.7,4.29.22,6.43.33,10.72.59v-2.19c-4.57.31-6.86.48-11.43.84-.29-.31-.43-.46-.71-.77-.29-.01-.43-.02-.71-.03-1.71.21-2.57.32-4.29.53-.86-.62-1.29-.94-2.14-1.56.29-1.45.43-2.18.71-3.63-.29-.3-.43-.46-.71-.76,0-2.44,2.86-3.54,8.58-3.26,12.86.16,25.71.54,38.55,1.13Zm-30.69,40.98c-.57,6.4-.86,9.6-1.43,16.01.57.03.86.05,1.43.08-.29-1.48-.43-2.22-.71-3.7v-1.46c.57-.85.86-1.27,1.43-2.11-.29-.02-.43-.02-.71-.04.29-.28.43-.41.71-.69v-.73c-.29-.31-.43-.46-.71-.77v-.73c.57-1.14.86-1.71,1.43-2.84-.29-1.19-.43-1.78-.71-2.97-.29-.02-.43-.02-.71-.04Zm26.41-39.14v.73c1.14.09,1.71.14,2.85.23v-.73c-1.14-.09-1.71-.14-2.85-.23Z"/>
      <path class="cls-1" d="m294.74,7.1c1.26,1.1,5.25,1.98,11.98,2.72-.02.29-.02.44-.04.73-1.99-.22-2.99-.33-4.98-.54-.02.29-.03.44-.04.73,5.95.63,9.66,2.53,11.14,5.62-.03.58-.05.87-.08,1.45-1.42-.16-2.13-.25-3.56-.41-.02.29-.03.44-.04.73,1.98.51,2.96.77,4.94,1.3-.02.29-.03.44-.04.73-1.71-.2-2.56-.3-4.27-.49-.02.29-.02.44-.04.73,1.42.16,2.21,1.57,2.05,1.7-1.78,1.5-16.01,1.42-22.67,7.13-.02.29-.03.44-.04.73,8.69,2.86,17.68,11.03,21.83,19.1-.02.29-.03.44-.04.73-1.73,6.11-6.57,11.4-14.53,15.99-1.74.12-2.62.18-4.36.3-.02.29-.03.44-.04.73.57.06.86.08,1.43.14-.06,1.31-4.41,2.32-13.08,3.17.03-.58.05-.87.08-1.46,1.43.12,2.14.19,3.57.32.03-.29.05-.43.08-.72-3.05-.28-5.8-2.22-8.26-5.84-2.13-1.3-3.19-3.52-3.19-6.67,0-.29.01-.59.04-.9.89-.51,1.33-.77,2.22-1.28.82.65,1.23.98,2.06,1.63.57.05.86.07,1.43.12,13.43-1,20.33-4.62,20.75-11.2-5.61-3.51-9.33-5.32-11.15-5.49-.02.29-.03.44-.04.73-2.8-1.43-4.2-2.14-7-3.56.27.32.4.47.67.79-.02.58-.03.88-.04,1.46-5.93-5-8.83-8.63-8.68-10.97,2.23-3.92,3.35-5.87,5.58-9.78,1.49-1.04,2.24-1.56,3.73-2.6-.03.58-.05.87-.08,1.46,5.1-3.64,7.65-5.45,12.75-9.04Zm-9.98,59.75c-.02.29-.03.44-.04.73,1.14.1,1.71.16,2.85.26,1.44-.16,2.16-.24,3.61-.39v-.73c-.29-.03-.43-.04-.71-.07-2.28.07-3.42.11-5.7.2Zm.25-40.93c-.02.29-.03.44-.04.73,5.03-2.76,7.55-4.12,12.58-6.83,2.31-.35,3.47-.52,5.78-.86.03-.58.05-.87.08-1.45-.57-.06-.85-.09-1.42-.15-7.51,2.07-13.17,4.95-16.98,8.56Zm3.94,30.35c.29.03.43.04.71.07.6-.53.91-.79,1.51-1.32-.29-.03-.43-.04-.71-.07-.6.53-.91.79-1.51,1.32Zm3.9,6.23v.73c.29.03.43.04.71.07,1.19-.76,1.79-1.14,2.98-1.9-1.48.44-2.21.65-3.69,1.09Zm8.93-4.94c-1.22,1.33-1.83,2-3.06,3.34.28.03.43.04.71.07,1.22-1.34,1.84-2,3.06-3.33-.28-.03-.43-.05-.71-.08Z"/>
      <path class="cls-1" d="m57.45,89.43c1.04.24,1.56.37,2.61.62v1.78c-1.04.11-1.56.16-2.61.28.69,1,1.04,1.49,1.74,2.49-1.26,3.11-5.9,5.07-13.89,6.02-2.43.64-3.64.97-6.07,1.63-.35,1.11-.52,1.67-.87,2.78.35-.04.52-.06.87-.11-5.76,18.71-7.46,39.16-10.4,58.43,1.04,4.5,1.56,6.75,2.6,11.25-.35.05-.52.07-.87.11-1.29.17-2.45-2.65-3.47-8.46.35-3.61.52-5.42.87-9.04v-.89c-.35.05-.52.07-.87.12v1.78c-1.73.23-2.6.95-2.6,2.14v.89c.69,5.61,1.04,8.42,1.73,14.04v.89c-.69.09-1.04.14-1.73.24-1.39-.88-2.08-1.32-3.47-2.2-.35.41-.52.61-.87,1.01-.35.05-.52.07-.87.12-2.31-4.82-3.46-9.11-3.46-12.89.35.31.52.46.87.77.35-.05.52-.07.87-.12-.69-2.4-1.04-3.6-1.73-6,1.04-.51,1.56-.76,2.6-1.26v-4.46c-.69.1-1.04.15-1.73.25v-.89c1.73-.25,2.6-.96,2.6-2.15v-.89c-.69.1-1.04.15-1.73.25,0-4.76.87-7.26,2.6-7.5v-11.6c.92-.97,2.07-7.37,3.46-19.22-2.43.69-3.64,1.04-6.06,1.74-4.85.34-7.27.52-12.11.9v-.89c1.73-.62,2.59-.93,4.32-1.55v.89c.35-.41.52-.61.87-1.02,5.19-.77,7.79-1.15,12.99-1.86v-2.68c-5.54,1.48-8.31,2.23-13.85,3.77-.35-.3-.52-.46-.87-.76-.35.05-.52.08-.86.13-2.08.67-3.11,1.01-5.19,1.69-1.04-.55-1.56-.83-2.59-1.38.35-1.84.52-2.76.86-4.6-.35-.3-.52-.45-.86-.76,0-2.97,3.46-5.02,10.38-6.06,15.55-2.89,31.16-5.53,46.82-7.78Zm-37.3,57.26c-.69,7.95-1.04,11.92-1.73,19.87.69-.1,1.04-.15,1.73-.24-.35-1.74-.52-2.6-.87-4.34v-1.78c.69-1.17,1.04-1.75,1.73-2.92-.35.05-.52.07-.87.12.35-.41.52-.61.87-1.01v-.89c-.35-.31-.52-.46-.87-.77v-.89c.69-1.52,1.04-2.29,1.73-3.81-.35-1.38-.52-2.07-.87-3.45-.35.05-.52.07-.87.12Zm32.09-54.01v.89c1.39-.16,2.08-.23,3.47-.38v-.89c-1.39.15-2.08.23-3.47.38Z"/>
      <path class="cls-1" d="m99.51,87.32c1.68,1.08,2.52,1.62,4.2,2.7-1.23,5.37-3.45,8.05-6.66,8.07-9.1,1.08-13.64,1.66-22.73,2.93-.04.72-.06,1.08-.1,1.79,1.72-.03,2.58-.05,4.3-.07,2.11-.4,3.16-.59,5.27-.98.33.37.49.56.82.93.35,0,.52-.01.87-.02,2.46-.41,3.69-.62,6.14-1.02.7,0,1.05.01,1.74.02-.02.36-.03.54-.05.9-8.09,1.47-12.13,2.25-20.22,3.86-.63,4.68-.95,7.02-1.59,11.69.35-.01.52-.02.87-.03,9.45-1.67,14.18-2.45,23.65-3.92.31.36.46.53.77.89-.02.36-.03.54-.05.9-.7-.01-1.04-.02-1.74-.03v.89c2.4.37,3.6.55,5.99.93-.02.36-.03.54-.05.9-1.26,3.41-9.6,6.62-24.98,10.08-3.5.44-5.25.67-8.75,1.15.33.32.49.49.82.81-1.68,4.7-2.52,7.05-4.19,11.75-.35.04-.52.05-.87.09.2-3.23.31-4.85.51-8.08-.35.01-.52.02-.87.04-.67,5.02-1.01,7.54-1.69,12.56,12.11-2.72,24.32-5.74,36.79-6.08,1.7.36,2.55.54,4.25.91-.02.72-.03,1.07-.05,1.79-.7,0-1.04,0-1.74.02.31.36.46.53.77.89-.06,1.07-.09,1.61-.15,2.69-1.67,2.36-5.23,3.54-10.65,3.62-.02.36-.03.54-.05.9,2.79-.03,4.18-.04,6.96-.05-.06.72-.09,1.08-.15,1.8-13.55,3.02-27.02,6.33-40.47,9.75-.35.02-.52.03-.87.04-2.79-.33-4.19-1.09-4.19-2.32v-.16c.06-1.08.09-1.62.15-2.69.96-3.97,1.44-5.96,2.4-9.92-.33-.34-.49-.51-.82-.85.69-.06,1.04-.08,1.74-.14-.12,1.8-.18,2.7-.31,4.49.35,0,.52,0,.87.01.34-3.01,1.02-4.52,2.04-4.52-.33-.36-.49-.55-.82-.91.25-3.57.37-5.36.61-8.93-.69.01-1.04.02-1.74.03-.47,1.81-.71,2.72-1.18,4.54.39-.38.58-.57.97-.95.35-.02.52-.03.87-.04-.14,2.16-.21,3.23-.36,5.39-.35,0-.52,0-.87-.01.06-1.06.09-1.58.15-2.64-.35.02-.52.03-.87.04-.04.72-.06,1.08-.1,1.8-.35.02-.52.03-.87.04.04-.72.06-1.08.1-1.8,1.1-6.15,1.66-9.22,2.76-15.36-.35.02-.52.03-.87.04.8-1.81,1.2-2.71,1.99-4.52-.33-.34-.49-.51-.82-.86.02-.36.03-.54.05-.9.76-6.11,1.13-9.16,1.89-15.26.33.34.49.51.82.86.35-.02.52-.02.87-.04.04-.72.06-1.08.1-1.79-.22-1.78-.34-2.67-.56-4.45.55-3.25.83-4.87,1.38-8.12.06-1.08.09-1.62.15-2.69.35,0,.52,0,.87.02.33.34.49.52.82.86.37-.37.55-.56.92-.93.35,0,.52.01.87.02.33.32.49.49.82.81.37-.37.55-.56.92-.93,1.04-.02,1.56-.03,2.61-.05,10.16-1.19,20.36-2.24,30.56-3.14Zm-43.54,42.89c-.16,2.52-.25,3.77-.41,6.29.35-.02.52-.03.87-.04.16-2.49.25-3.74.41-6.24-.35,0-.52,0-.87-.01Zm28.69-1.6c.35-.03.52-.04.87-.07-.04.36-.06.54-.1.9-6.31,1.17-9.46,1.78-15.76,3.04-.33-.37-.49-.55-.82-.92.02-.34.03-.51.05-.84,3.15-.45,4.73-.67,7.88-1.11-.02.36-.03.54-.05.9,3.17-.77,4.76-1.15,7.93-1.9Z"/>
      <path class="cls-1" d="m122.47,85.46c4.18-.21,6.28-.31,10.46-.48,12.21,1.84,18.31,7.09,18.31,15.45v5.35c-3.49,5.08-5.23,7.63-8.72,12.74.35-.01.52-.02.87-.03,3.49-3.32,5.23-4.98,8.72-8.28v1.78c-2.98,6.86-6.76,11.42-11.34,13.72-2.09.79-3.14,1.18-5.23,1.98,0,1.43,0,2.14,0,3.57,7.29,6.28,12.66,14.92,18.31,22.63,2.33.93,4.65,3.26,6.98,7v.89c-1.74-1.4-2.62-2.1-4.36-3.49v.89c2.91,3.09,4.36,5.45,4.36,7.05-.35,0-.52,0-.87.02-1.74,1.1-2.62,1.65-4.36,2.76-.35,0-.52.01-.87.02-.7-1.06-1.05-1.58-1.75-2.64-.35.37-.52.55-.87.91-.35,0-.52.01-.87.02-9.81-7.82-18.82-17.22-24.41-28.56-1.74-3.49-2.62-5.23-4.36-8.71-2.05.1-3.57,4.09-3.49,10.89.07,5.64.09,9.56-.87,10.91-1.71,1.53-2,2.98-.87,4.35v1.78c-1.05.06-1.57.09-2.61.15-1.16.07-1.74-1.09-1.74-3.47-.35.02-.52.03-.87.05,0,2.38-1.09,3.33-3.28,2.88-1.54-2-2.31-3-3.84-5,.41-3.28.61-4.92,1.02-8.2,0-1.43,0-2.14,0-3.57,2.09-10.13,3.14-15.19,5.23-25.31.35-.02.52-.03.87-.05v3.57c.35-.02.52-.03.87-.05,1.74-7.6,2.61-11.39,4.36-18.98-1.16.06-1.74,1.29-1.74,3.67-.35.02-.52.03-.87.05v-1.78c-2.09.12-3.14.18-5.23.31v-.89c0-1.19,1.74-2.19,5.23-2.99v-.89c-.7.04-1.05.06-1.74.1-2.09.84-3.14,1.26-5.23,2.1-.35.02-.52.03-.87.06,0-1.19,1.16-1.86,3.48-2v-.89c-2.32.14-3.48-.67-3.48-2.46,6.27-3.61,9.41-5.4,15.68-8.93Zm-12.2,38.15v3.57c.35-.02.52-.03.87-.05v-3.57c-.35.02-.52.03-.87.05Zm1.74-11.7c.35-.02.52-.03.87-.05v3.57c-.35.02-.52.03-.87.05v-3.57Zm1.74-8.13c.35-.02.52-.03.87-.05v2.68c-.35,1.45-.52,2.17-.87,3.62-.35.02-.52.03-.87.05v-2.68c.35-1.45.52-2.17.87-3.62Zm9.59,13.76c.35-.02.52-.03.87-.04,9.13-4.92,15.52-9.89,19.18-15.05v-1.78c0-2.03-3.49-4.01-10.46-5.86-2.09.8-3.14,1.2-5.23,2.01-1.74,8.29-2.62,12.43-4.36,20.73Zm13.08,31.54v.89c1.39,1.37,2.09,2.06,3.49,3.44-1.13-2.65-2.29-4.1-3.49-4.33Zm6.98-43.07c-1.74,2.55-2.62,3.83-4.36,6.39.35-.01.52-.02.87-.03,1.74-2.2,2.62-3.3,4.36-5.5v-.89c-.35.01-.52.02-.87.03Zm-2.62-11.51c1.16,2.65,2.33,4.1,3.49,4.35v-1.78c-1.4-1.03-2.09-1.54-3.49-2.56Zm0,60.66v.89c1.4,1.02,2.09,1.53,3.49,2.56v-.89c-1.4-1.03-2.09-1.54-3.49-2.56Zm5.23-55.48c-.35,1.79-.52,2.69-.87,4.49.35-.01.52-.02.87-.03.35-.37.52-.55.87-.92v-3.57c-.35.01-.52.02-.87.03Zm6.1,7.86c.7-.02,1.05-.03,1.74-.04-.35,1.08-.52,1.62-.87,2.7-.35,0-.52.01-.87.02v-2.68Z"/>
      <path class="cls-1" d="m169.97,84.15c.7,0,1.05,0,1.74-.01.99.71,1.48,1.06,2.46,1.77.02-.36.03-.54.05-.89,3.11.58,5.32,2.06,6.62,4.44,2.02,0,4.11,6.25,6.26,18.75,4.82-7.47,7.24-11.19,12.06-18.6.37-.35.55-.53.92-.88.35,0,.52,0,.87.02-.02.36-.03.53-.05.89-4.95,8.83-7.42,13.26-12.37,22.15.7,0,1.05,0,1.75.01,4.53-9.12,8.68-20.43,16.32-27.4.99.74,1.48,1.1,2.46,1.84.02-.36.03-.53.05-.89,2.5.06,5.45,3.12,8.87,9.18-.1,1.07-.15,1.6-.26,2.67-.37.34-.55.52-.92.86.31.37.46.55.77.92-.12,1.42-.19,2.14-.31,3.56-.7-.02-1.05-.03-1.74-.05.51,2.16.77,3.24,1.28,5.39-.68,3.9-1.02,5.86-1.69,9.76-.1,1.07-.15,1.6-.26,2.67.33.37.49.55.82.92l-.1.89c-.74.69-1.11,1.04-1.85,1.73.62.73.92,1.1,1.54,1.83-.74.69-1.11,1.04-1.85,1.73.62.73.92,1.1,1.54,1.83-.37.35-.55.52-.92.86-.35-.01-.52-.02-.87-.03.33.37.49.55.82.92-.86,9.97-1.29,14.95-2.15,24.92-1.74-.05-2.69.82-2.82,2.6-1.74-.04-2.75,1.42-3.03,4.39-1.05-.02-1.57-.03-2.62-.06-1.97-1.47-2.95-2.2-4.92-3.66.53-2.13.8-3.2,1.33-5.33-.51-2.15-.77-3.22-1.28-5.37,1.97-12.75,3.93-25.5,5.9-38.25-2.91,3.05-6.09,9.54-9.54,19.47-.31,3.46-1.68,5.82-4.1,7.09-.35,0-.52,0-.87,0,.02-.36.03-.53.05-.89.39-.35.58-.53.97-.88.04-.36.06-.53.1-.89-.33-.36-.49-.54-.82-.9.76-.71,1.14-1.06,1.9-1.77.08-1.07.12-1.6.2-2.67-.7,0-1.05-.01-1.74-.02-.24,3.25-1.61,5.62-4.11,7.11-.35,0-.52,0-.87,0-1.58-1.79-2.37-2.69-3.95-4.47-1.54,0-2.46-2.68-2.77-8.03-2.98-6.19-4.35-10.64-4.11-13.37-.35,0-.52,0-.87,0-.72,4.29-1.08,6.43-1.8,10.72-.25,2.86-.37,4.28-.62,7.14-.43,1.07-.65,1.61-1.08,2.68.18,1.78.28,2.67.46,4.46-.66,7.86-.99,11.78-1.64,19.64-1.16.01-1.83.91-2,2.7-1.89,1.81-2.83,2.71-4.72,4.52-.35,0-.52,0-.87.01-2.36-1.03-3.54-1.54-5.9-2.56.51-1.8.77-2.69,1.28-4.49-.02-3.92-.03-5.89-.05-9.81.14-1.79.22-2.68.36-4.47.37-.36.55-.55.92-.91-.31-.35-.46-.53-.77-.88.04-.36.06-.54.1-.89.79-9.84,2.64-19.99,5.13-29.53.35,0,.52,0,.87-.01-.33-.35-.49-.53-.82-.88.04-.36.06-.54.1-.89.47-1.43.71-2.15,1.18-3.59-.25-1.42-.37-2.14-.62-3.56.04-.36.06-.54.1-.89.35,0,.52,0,.87-.01-.06.71-.09,1.07-.15,1.79.35,0,.52,0,.87-.01.1-1.07.15-1.61.26-2.68-.33-.35-.49-.53-.82-.88,1.27-2.52,1.91-3.77,3.18-6.28.08-1.07.12-1.61.21-2.68-.39.36-.59.54-.98.9-.35,0-.52,0-.87.01-.31-.35-.46-.53-.77-.88.08-1.07.12-1.61.2-2.68.35,0,.52,0,.87-.01.33.35.49.53.82.88.35,0,.52,0,.87,0,.76-.72,1.14-1.08,1.9-1.8Zm21.86,40.16c.27,1.07.4,1.61.67,2.68.35,0,.52,0,.87,0,.24-3.18,3.83-11.18,10.78-23.92.49-1.77.74-2.66,1.23-4.43-6,7.65-9.71,16.84-13.55,25.66Zm10.47-40.89c.7.01,1.05.02,1.75.03-.06.71-.09,1.07-.15,1.78-.82,1.41-1.23,2.12-2.05,3.53-.31-.36-.46-.54-.77-.91-.35,0-.52,0-.87-.02.84-1.77,1.26-2.65,2.1-4.42Zm-.62,68.68c-.25,2.85-.37,4.28-.62,7.13.35,0,.52,0,.87.02.51-1.77.77-2.66,1.28-4.44-.27-1.08-.4-1.61-.67-2.69-.35,0-.52-.01-.87-.02Zm5.69-46.27c-.37.35-.55.52-.92.87-.78,8.9-1.17,13.36-1.95,22.26.35,0,.52.01.87.02,1.01-7.47,1.51-11.21,2.51-18.68-.33-.36-.49-.55-.82-.91.35,0,.52.01.87.02-.31-.36-.46-.55-.77-.91.02-.36.03-.53.05-.89.39-.35.58-.52.97-.87l.05-.89c-.35,0-.52-.01-.87-.02Z"/>
      <path class="cls-1" d="m238,86.23c-.14,1.78.96,2.72,3.28,2.85.64,1.46.95,2.19,1.59,3.65-.37.34-.55.51-.92.84.35.02.52.03.87.05-4.69,14.13-6.41,28.56-7.64,43.32-.12,2.14-.18,3.2-.31,5.34.35.37.52.56.87.93-.02.36-.03.53-.05.89-.37.34-.55.51-.92.85.35.02.52.02.87.04-.37.34-.55.51-.92.85.21,2.51.31,3.76.51,6.27-.04.71-.06,1.07-.1,1.78-3.11,3.7-4.74,6.61-4.87,8.7-1.4-.06-2.09-.09-3.49-.15-1.68-.78-2.52-1.17-4.21-1.95.49-2.48.74-3.72,1.23-6.2-1.33-1.48-2-2.22-3.33-3.69.64-5.33.95-8,1.59-13.33.35-6.41.52-9.62.87-16.03.76-1.04,1.14-1.56,1.9-2.6.08-1.42.12-2.14.21-3.56-.33-.37-.49-.55-.82-.92.02-.36.03-.53.05-.89.7.03,1.05.04,1.74.07.02-.36.03-.53.05-.89-.33-.37-.49-.55-.82-.92,1.42-6.72,2.12-10.09,3.54-16.81-.35-.01-.52-.02-.87-.04.37-.34.55-.51.92-.85.1-2.14.15-3.21.26-5.34-.33-.37-.49-.56-.82-.93.02-.36.03-.53.05-.89,3.88-.2,5.82-.28,9.69-.45Zm-12.46,68.14c-.1,1.78-.15,2.67-.26,4.45.72-.69,1.08-1.03,1.79-1.71.08-1.07.12-1.6.2-2.67-.7-.03-1.05-.04-1.74-.07Zm.15-35.68c-.1,2.14-.15,3.21-.26,5.34.35.01.52.02.87.03.1-2.14.15-3.21.26-5.34-.35-.01-.52-.02-.87-.03Zm1.33-7.98c-.12,2.14-.18,3.2-.31,5.34.35.01.52.02.87.04.12-2.14.18-3.2.31-5.34-.35-.01-.52-.02-.87-.04Zm1.33-8.87c-.12,2.49-.18,3.74-.31,6.23.35.01.52.02.87.04.12-2.49.18-3.74.31-6.23-.35-.01-.52-.02-.87-.04Z"/>
      <path class="cls-1" d="m291.1,89.81c1.68,1.36,2.52,2.04,4.19,3.4-1.23,5.16-3.44,7.47-6.65,6.96-9.08-.44-13.63-.61-22.72-.87-.04.71-.06,1.07-.1,1.78,1.72.25,2.58.38,4.3.64,2.11-.04,3.16-.07,5.27-.1.33.43.49.64.82,1.07.35.05.52.07.87.13,2.46,0,3.68,0,6.14,0,.7.13,1.04.19,1.74.31-.02.35-.03.53-.05.89-8.08.12-12.13.22-20.22.49-.64,4.57-.95,6.86-1.59,11.43.35.05.52.07.87.12,9.46-.09,14.19-.08,23.65.03.31.41.46.61.77,1.02-.02.35-.03.53-.05.89-.7-.13-1.04-.19-1.74-.32v.89c2.39.77,3.59,1.15,5.98,1.93-.02.35-.03.53-.05.89-1.26,3.2-9.58,5.02-24.97,5.91-3.5-.14-5.25-.2-8.76-.32.33.38.49.57.82.95-1.68,4.42-2.52,6.63-4.2,11.05-.35-.02-.52-.03-.87-.06.21-3.2.31-4.8.51-8-.35-.04-.52-.07-.87-.11-.68,4.91-1.01,7.37-1.69,12.28,12.24-.7,24.6-1.65,36.81.07,1.7.64,2.55.97,4.25,1.62-.02.71-.03,1.07-.05,1.78-.69-.11-1.04-.17-1.74-.28.31.41.46.61.77,1.02-.06,1.06-.09,1.6-.15,2.66-1.67,2.08-5.22,2.67-10.64,1.84-.02.36-.03.53-.05.89,2.78.43,4.18.66,6.96,1.11-.06.71-.09,1.06-.15,1.77-13.52.76-27.02,1.75-40.5,2.99-.35-.04-.52-.06-.87-.1-2.8-.79-4.2-1.79-4.2-3.02v-.16c.06-1.07.09-1.6.15-2.67.96-3.81,1.45-5.71,2.41-9.52-.33-.4-.49-.59-.82-.99.7.06,1.05.09,1.74.15-.12,1.78-.18,2.67-.31,4.44.35.06.52.09.87.16.34-2.95,1.03-4.35,2.05-4.18-.33-.42-.49-.63-.82-1.05.25-3.53.37-5.3.62-8.83-.7-.1-1.05-.16-1.74-.26-.47,1.74-.71,2.6-1.18,4.34.39-.31.58-.47.97-.78.35.04.52.06.87.1-.14,2.13-.22,3.2-.36,5.33-.35-.06-.52-.09-.87-.16.06-1.05.09-1.57.15-2.61-.35-.04-.52-.06-.87-.1-.04.71-.06,1.07-.1,1.78-.35-.04-.52-.06-.87-.1.04-.71.06-1.07.1-1.78,1.11-5.96,1.66-8.94,2.77-14.9-.35-.04-.52-.06-.87-.1.8-1.68,1.2-2.51,2-4.19-.33-.4-.49-.6-.82-.99.02-.36.03-.53.05-.89.76-5.98,1.14-8.97,1.9-14.95.33.4.49.6.82.99.35.04.52.06.87.11.04-.71.06-1.07.1-1.78-.23-1.82-.34-2.73-.56-4.55.55-3.16.83-4.73,1.38-7.89.06-1.07.09-1.6.15-2.67.35.06.52.1.87.16.33.4.49.6.82,1,.37-.31.55-.47.92-.78.35.06.52.1.87.16.33.38.49.57.82.95.37-.31.55-.47.92-.78,1.05.15,1.57.23,2.61.39,10.19.5,20.39,1.16,30.56,1.97Zm-43.57,35.61c-.16,2.49-.25,3.73-.41,6.22.35.04.52.06.87.1.16-2.47.25-3.7.41-6.17-.35-.06-.52-.09-.87-.16Zm28.73,3.19c.35.03.52.04.87.07-.04.35-.06.53-.1.88-6.31.12-9.46.2-15.77.41-.33-.42-.49-.63-.82-1.05.02-.33.03-.5.05-.84,3.16.07,4.73.12,7.89.21-.02.36-.03.53-.05.89,3.17-.24,4.76-.35,7.94-.57Z"/>
      <path class="cls-1" d="m313.23,92.59c2.43,2.42,3.65,3.64,6.07,6.07,0-1.78.58-2.61,1.73-2.46.35.04.52.06.87.11,4.05,11.23,8.1,22.45,12.14,33.69v1.78c-.35-.05-.52-.07-.87-.12-.69-2.23-1.04-3.35-1.73-5.58-.35-.05-.52-.07-.87-.11v1.78c2.43,6.39,3.64,9.58,6.07,15.98.35.05.52.07.87.12,2.66-15.87,6.01-31.43,9.98-47.02,1.04.87,1.56,1.3,2.6,2.17,1.04-.2,1.56-.3,2.6-.5,2.08,1.38,3.11,2.08,5.19,3.47v.89c-1.73-.27-2.59.79-2.59,3.17.35.05.52.08.87.13.35.41.52.62.87,1.03.35.05.52.08.86.13.35-1.73.52-2.6.86-4.33.69.11,1.04.16,1.73.27v.89c-.35.3-.52.45-.86.76.35.41.52.62.86,1.03v.89c-6.05,18.58-8.88,38.08-11.7,57.35-.69-.1-1.04-.15-1.73-.25.69-5.61,1.04-8.41,1.73-14.02-1.15-.17-2.89,5.23-5.19,16.19-2.14,1.48-4.16,2.09-6.06,1.82v1.78c-.35-.05-.52-.07-.87-.12,0-1.19-1.15-1.94-3.47-2.25v-6.24c-3.58-16.04-11.23-31.66-17.34-46.79-.35-.04-.52-.06-.87-.1-3.02,13.9-4.56,28-6.08,42.12-.35-.4-.52-.59-.87-.99-3.47.66-5.21,1.97-5.21,3.89-.69-.07-1.04-.11-1.74-.18-1.16-2.36-1.74-6.29-1.74-11.78-.35-.04-.52-.05-.87-.09,0,3.21,0,4.82,0,8.03-.7-.07-1.04-.11-1.74-.18-.35-1.82-.52-2.73-.87-4.55-.12-19.69,4.95-39.04,10.43-57.78,2.78-.05,4.17-.07,6.95-.11Zm-12.16,20.96v.89c.35.39.52.59.87.98-.35.32-.52.48-.87.8v1.78c.35.04.52.05.87.09.35-1.39.52-2.09.87-3.48-.35-.39-.52-.59-.87-.98-.35-.04-.52-.06-.87-.09Zm32.97,18.23c1.49.2,2.65,2.74,3.47,7.61v.89c-.35-.05-.52-.07-.87-.12-1.04-3.35-1.56-5.03-2.6-8.38Z"/>
    </g>
  </g>
</svg>